<?xml version="1.0" standalone="no"?><!DOCTYPE svg PUBLIC "-//W3C//DTD SVG 1.1//EN" "http://www.w3.org/Graphics/SVG/1.1/DTD/svg11.dtd"><svg class="icon" width="200px" height="200.00px" viewBox="0 0 1024 1024" version="1.1" xmlns="http://www.w3.org/2000/svg"><path d="M937.35247438 970.63238323h-3.11977688L501.64645344 970.66666667c-3.39404344 0-5.34818906-0.78851531-6.51382032-4.045425-2.26269563-6.17098781-6.34240406-5.725305-11.65630968-1.30276406-1.54274719 1.26848063-2.22841219 3.35976-3.42832688 5.17677281H83.45918188v-21.25562438c0-0.92564812 0-1.85129625 0.06856593-2.74266187 0.20569969-8.12513438 0.20569969-16.25026781 0.68566594-24.34111781 0.685665-9.53074781 1.43989688-19.06149562 2.7083775-28.55796094 3.49689281-26.15813156 8.60509969-52.00771406 18.51296344-76.89736406a183.75830344 183.75830344 0 0 1 29.34647531-50.19070032 146.86950938 146.86950938 0 0 1 48.16798781-38.08870781c8.81079938-4.45682438 17.58731531-9.01649906 26.74094719-12.78765843 15.83886844-6.54810375 32.02057031-12.47910844 47.99657156-18.8215125 4.11399187-1.61131312 8.12513438-3.46260937 11.86201032-5.72530594a18.30726375 18.30726375 0 0 0 7.61088468-10.59352875c2.50267875-7.19948531 7.64516812-12.61624125 13.81615594-17.484465 13.88472281-10.97064469 29.72359125-19.88429437 41.89415063-32.70623531 4.045425-4.25112469 8.0565675-8.57081625 12.444825-12.54767532 9.22219875-8.33083312 18.95864625-16.113135 31.43775468-20.22712687 1.74844687-0.58281562 3.56545969-1.37133094 5.34818907-1.37133094 4.0111425 0.13713281 4.38825844-2.3312625 4.45682437-4.86822375a75.76601625 75.76601625 0 0 0-8.67366562-37.84872469c-4.66252406-8.84508281-9.94214719-17.34733219-14.70752063-26.12384812-5.89672125-10.97064469-11.48489437-22.04413969-17.24448281-33.04906782a27.42661219 27.42661219 0 0 0-3.49689281-5.41675593c-1.13134781-1.30276406-2.70837844-2.81122781-4.353975-3.18834375-10.38782906-2.3312625-16.97021625-8.63938313-22.00985625-16.7988-9.393615-15.22177031-19.06149562-30.30640687-28.11227813-45.69959344-4.79965687-8.15941688-8.81079938-16.7988-9.4278975-26.26098094a185.81529937 185.81529937 0 0 1 0-18.41011406c0.13713281-4.045425 0.20569969-4.28540813-4.04542594-4.79965687-2.29697906-0.27426656-2.77694437-1.61131312-2.74266093-3.42832688 0.27426656-6.78808687 0.82279875-13.57617281 0.58281562-20.36425969-0.17141625-5.14248938-1.37133094-10.21641281-2.19412875-15.90743437-2.74266094 1.30276406-4.49110781 2.22841219-6.342405 3.01692656-3.63402656 1.61131312-6.17098781 0.23998312-5.99957062-3.32547656 0.27426656-5.41675594 0.85708125-10.83351187 1.26848062-16.25026781 0.17141625-2.19412875-0.17141625-3.56545969-3.32547656-2.53696125a12.58195875 12.58195875 0 0 1-5.96528906 0c-2.46839531-0.44568281-4.6968075-1.09706437-3.46260938-4.59395813 2.43411187-6.85665281 4.38825844-13.91900625 6.41097094-20.91279187 0.685665-2.39982844 0.85708125-4.93679062 1.37133-7.67945157-1.26848063-0.10284937-2.15984531-0.41139938-2.91407719-0.17141625-2.05699594 0.58281562-4.6968075 1.37133094-5.51960531-0.75423187-0.75423187-1.95414656-0.10284937-4.45682438 0.47996531-6.61666969 0.41139938-1.50846375 1.74844687-2.81122781 3.0169275-4.73109094-4.55967469-0.54853219-8.29655063-1.0284975-12.03342656-1.43989687-3.42832687-0.3428325-4.52539125-1.37133094-2.91407719-4.28540813 2.365545-4.353975 5.31390656-8.3994 8.19370031-12.47910937 1.64559656-2.3312625 3.56545969-4.45682438 5.58817219-6.95950219-3.42832687-1.16563125-6.54810375-1.98842906-9.49646437-3.18834375-5.14248938-2.05699594-5.34818906-4.79965687-0.82279875-7.91943469a256.43882625 256.43882625 0 0 0 7.02807-4.90250718c0.685665-0.47996531 1.19991469-1.16563125 2.43411187-2.43411188l-11.24491125-3.01692656c-0.92564812-0.27426656-1.91986313-0.3428325-2.81122781-0.68566594-3.15406031-1.16563125-3.49689281-2.3312625-2.12556281-5.21105625 2.43411187-5.14248938 6.44525438-8.91364875 10.97064562-12.54767531 4.045425-3.32547656 7.26805219-7.50803531 10.66209469-11.45061 3.25691063-3.77115937 6.23955469-7.713735 9.393615-11.65631063-0.85708125-0.82279875-1.91986313-2.05699594-3.22262719-2.91407718-3.90829219-2.674095-4.0111425-6.34240406 0.17141719-8.63938313 3.22262719-1.78272937 6.85665281-2.94836063 10.28497875-4.42254187 0.92564812-0.41139938 1.78272937-0.994215 3.35976-1.88557875l-7.02806906-2.29697907h-0.3428325c-2.22841219-1.47418031-5.51960531-2.53696125-6.41097094-4.49110781-0.6513825-1.47418031 1.30276406-4.59395719 3.05121094-6.06813844 2.91407719-2.50267875 6.85665281-3.90829219 9.83929687-6.34240406a229.01221313 229.01221313 0 0 0 13.85043938-12.58195781c5.03964-4.79965687 9.87358031-9.80501437 14.7760875-14.74180406 0.30854906-0.27426656 0.54853219-0.58281562 1.3370475-1.43989782-2.12556281-0.71994844-3.90829219-1.50846375-5.82815532-1.95414562-1.74844687-0.41139938-3.63402656-0.51424875-5.48532281-0.6513825-2.365545-0.17141625-3.94257563-1.26848063-4.45682437-3.29119313-0.61709906-2.26269563 0.685665-3.66830906 2.87979468-4.79965687 6.82236938-3.56545969 14.15898844-5.65673906 21.73559063-7.19948625 5.725305-1.19991469 11.62202719-1.81701281 17.17591594-3.39404344 10.21641281-2.87979469 18.85579594-8.63938313 27.87229406-13.71330562 8.22798375-4.62824063 16.18170094-9.83929688 25.60959937-12.47910938 3.15406031-0.85708125 6.3766875-1.50846375 9.80501438-2.33126156-3.59974313-8.46796688-10.18213031-15.15320344-11.03921156-24.13541906 7.47375187-0.82279875 14.39897156 0.78851531 21.25562437 2.57124468 7.95371719 2.05699594 15.83886844 2.94836063 24.06685219 1.30276407-2.22841219-7.30233562-7.19948531-14.124705-4.25112469-22.48982157 6.51382031 0.41139938 11.86201031 3.22262719 16.97021625 6.47953688 6.06813844 3.83972531 11.82772687 8.33083312 19.64431125 8.91364875 1.3370475 0.06856687 3.29119312-0.44568281 4.07970844-1.37133 4.45682438-5.27962313 8.81079938-10.66209562 12.95907469-16.18170188 3.25691063-4.28540813 6.82236938-8.09085094 12.58195875-9.53074781 0.51424875-0.13713281 1.0284975-0.3428325 1.54274625-0.41139937 0.54853219-0.06856687 1.09706437 0 1.50846375 0l-4.31969157 23.31262125c2.46839531-0.37711594 4.73109094-0.41139938 6.75380344-1.06278188 6.30812062-2.12556281 12.58195875-4.353975 18.78723-6.7538025 6.71952-2.60552813 13.30190719-5.48532281 19.98714375-8.19370125 1.26848063-0.47996531 2.74266094-0.51424875 4.28540813-0.78851437 1.50846375 4.79965687-2.57124469 7.78230094-4.04542594 11.7934425 3.0169275 0 5.75958844-0.20569969 8.46796687 0.03428343 8.94793219 0.75423187 17.93014781 1.50846375 26.8437975 2.50267875 7.23376875 0.82279875 14.46753844 1.85129625 21.66702375 2.98264407 10.21641281 1.61131312 20.08999312-0.03428344 29.82644063-2.365545 2.39982844 4.52539125-3.83972531 5.82815531-4.18255875 9.70216406l29.79215812-3.49689375c0.6513825 6.27383719-4.18255875 9.25648125-7.3709025 13.54189031 3.15406031 2.19412875 6.3766875 4.38825844 9.46218188 6.68523656 3.94257563 2.87979469 7.88515125 5.79387187 11.65630969 8.84508282 6.68523656 5.3824725 13.13049094 11.073495 20.02142718 16.25026781 2.05699594 1.57703063 5.24533969 2.26269563 8.02228407 2.67409406 14.84465438 2.19412875 29.82644063 3.42832687 44.29397906 7.61088563 0.78851531 3.25691063-1.26848063 5.27962313-3.80544281 6.44525343-5.3824725 2.50267875-11.00492813 4.59395719-17.00449969 7.02807 2.77694437 3.7025925 5.55388875 7.47375187 8.43368344 11.14206094 8.22798375 10.45639594 16.59310031 20.844225 24.75251812 31.33490438 2.05699594 2.674095 3.53117625 5.75958844 5.14248938 8.70795 0.3428325 0.685665 0.54853219 1.98842906 0.13713375 2.365545-0.54853219 0.51424875-1.85129625 0.6513825-2.74266188 0.51424875-1.67988-0.23998312-3.29119312-0.78851531-5.41675594-1.3370475 1.54274719 3.53117625 2.91407719 6.58238719 4.18255875 9.66788156 3.32547656 8.12513438 6.51382031 16.28455125 9.94214719 24.34111781 1.09706437 2.57124469 2.74266094 4.97107313 4.49110781 7.23376969 2.84551125 3.73687594 2.77694437 4.42254094-1.61131406 6.78808594l-1.37133 0.85708218 17.8272975 35.51746313c-6.68523656 0.44568281-12.34197562-4.93679062-19.26719531-2.57124563 0.41139938 4.6968075 0.41139938 9.53074781 1.30276406 14.22755532 1.43989688 7.43946844 3.35976 14.81037094 5.27962313 22.14699 0.47996531 1.81701281 1.61131312 3.49689281 2.60552812 5.17677281 1.23419719 2.15984531 0.58281562 3.56545969-1.98842906 3.90829219a20.32997625 20.32997625 0 0 1-6.06813844 0.20569968c-2.29697906-0.41139938-3.53117625-0.10284937-3.94257562 2.15984532-0.54853219 3.15406031-1.3370475 6.23955469-1.95414563 9.35933156-0.10284937 0.51424875-0.20569969 1.13134781 0 1.54274719 1.54274719 2.77694437 1.61131312 5.03964-1.37133094 7.3709025-2.46839531 1.91986313-4.73109094 3.53117625-8.3994 3.18834375 1.0284975 6.23955469 2.12556281 12.27340875 2.91407813 18.34154625a14.94750375 14.94750375 0 0 1-0.68566594 5.93100562c-0.17141625 0.47996531-2.43411187 1.06278094-3.0169275 0.685665-1.47418031-0.994215-2.57124469-2.46839531-3.49689281-3.42832687v8.77651593c0 6.89093625-1.61131312 13.47332344-5.34818906 19.54146188-0.3428325 0.54853219-0.20569969 1.43989688 0 2.12556187 2.63981156 9.87358031 4.49110781 19.8157275 4.07970843 30.10070719a41.13991875 41.13991875 0 0 1-7.3709025 22.04413969c-4.45682438 6.51382031-9.49646438 12.78765844-13.13049 19.67859469-3.87400875 7.30233562-6.51382031 15.22177031-9.59931468 22.86693843-2.63981156 6.58238719-5.82815531 12.95907469-13.02764063 16.25026782a31.43775469 31.43775469 0 0 1-12.68480812 3.05121c-4.6968075 0-7.405185 1.57703063-9.59931469 4.86822375a86.83951125 86.83951125 0 0 0-10.69637906 23.75830312 127.53374719 127.53374719 0 0 1-16.49025094 34.04328281c-4.97107313 7.26805219-10.04499656 14.53610438-13.98757219 22.28412282-3.80544281 7.47375187-3.90829219 15.70173563-2.09127937 23.89543593 10.4221125 0.23998312 20.39854312 1.67988 30.03214125 4.97107313 8.46796688 2.91407719 16.113135 7.02806906 23.03835375 12.34197562 12.06770906 9.29076469 20.94707531 20.77565906 27.76944562 33.5976 6.58238719 12.34197562 12.444825 24.99250031 18.58152938 37.54017563 2.43411187 5.00535656 4.79965687 10.04499656 7.19948625 15.0846375 0.23998312 0.44568281 0.685665 0.89136469 1.13134781 1.23419719 7.19948531 5.3824725 14.39897156 10.79922844 21.70130719 16.07885156 8.19370031 5.86243875 17.58731531 9.66788062 27.46089562 12.23912625 14.26183875 3.7025925 27.01521281 10.04499656 39.28862156 17.34733219 14.33040469 8.57081625 28.93507594 16.76451656 42.95693157 25.71244875 8.33083312 5.34818906 16.28455125 11.38204406 23.41547062 17.99871468 8.98221563 8.33083312 14.26183875 18.99292875 18.95864625 29.82644063 7.88515125 18.10156406 13.26762375 36.88879406 18.37582969 55.67602312 3.29119312 12.17055937 5.41675594 24.64966781 7.54231875 37.02592688 1.57703063 9.01649906 2.46839531 18.10156406 3.42832687 27.18662906 0.6513825 6.41097094 1.09706437 12.85622438 1.30276407 19.30147875 0.23998312 6.95950313 0.03428344 13.95328875 0.0342825 21.25562437z m-263.77544438-501.32419125c8.0565675 0.85708125 14.15898844-1.98842906 17.34733219-8.19370031a54.16755938 54.16755938 0 0 0 3.87400969-9.49646437c4.45682438-15.35890312 14.22755531-28.24941094 22.96978781-41.58560063 6.78808687-10.4221125 11.48489437-21.18705844 8.63938219-33.66616687-2.0227125-8.81079938-6.23955469-16.18170094-14.94750375-20.91279188-3.63402656-2.0227125-4.73109094-1.95414656-7.405185 1.13134781-2.674095 3.05121094-5.24533969 6.17098781-7.713735 9.32504813-3.46260937 4.42254094-7.3709025 8.98221563-13.19905688 9.90786375-5.48532281 0.89136469-7.50803531 2.98264406-7.405185 7.61088469 0.06856687 3.35976-2.91407719 4.0111425-5.34819 4.11399187a4.62824063 4.62824063 0 0 1-5.00535656-3.90829219c-0.61709906-3.42832687-1.40561344-6.85665281-1.71416344-10.35354656-0.47996531-4.52539125-0.47996531-9.085065-0.78851531-13.61045625-0.17141625-2.87979469-1.91986313-4.52539125-4.93678969-5.62245562a123.69402188 123.69402188 0 0 0-36.99164344-7.13091938 186.39811406 186.39811406 0 0 0-44.39682937 2.98264406c-12.95907469 2.57124469-25.47246656 6.17098781-36.92307656 12.51339188-0.82279875 0.44568281-1.98842906 1.3370475-2.0227125 2.05699594-0.13713281 7.74801844-0.30854906 15.49603594 0.06856687 23.24405437 0.17141625 3.56545969-0.20569969 5.00535656-3.87400969 6.033855-3.90829219 1.09706437-7.19948531-0.03428344-8.33083312-2.91407812-2.74266094-6.95950313-2.19412875-14.26183875-2.63981156-21.46132407-0.10284937-1.64559656 0.47996531-3.32547656 0.85708125-5.41675593a106.62095531 106.62095531 0 0 0-34.9346475 1.88557968c0 6.92521969 0.06856687 13.50760687 0 20.08999407a10.59352875 10.59352875 0 0 1-3.56545969 8.4336825c-2.70837844 2.22841219-5.10820688 1.81701281-5.725305-1.37133-1.0284975-5.31390656-1.43989688-10.7306625-2.12556188-16.113135-0.44568281-3.42832687-0.75423187-6.95950313-1.47418125-10.38782907a4.52539125 4.52539125 0 0 0-2.39982843-3.0169275 238.5086775 238.5086775 0 0 0-43.98542907-12.30769218 204.60252844 204.60252844 0 0 0-21.46132406-2.43411188 94.48467937 94.48467937 0 0 0-19.71287812 0.30854906 110.39211469 110.39211469 0 0 0-22.14698907 5.96528813 47.10520688 47.10520688 0 0 0-13.78187343 8.43368344c-4.93679062 4.31969156-3.22262719 10.31926312-2.7083775 15.7703025 0.51424875 5.27962313 1.88557969 10.52496281-0.10285032 15.63316875h-19.71287718c2.0227125 11.86201031 3.49689281 23.79258656 6.17098781 35.51746312 3.42832687 15.32461969 7.19948531 30.61495594 12.06770906 45.59674313 4.045425 12.37625906 9.70216406 24.34111875 15.01607063 36.37454437 6.17098781 13.85043938 15.29033625 25.98671531 26.74094718 36.68309438 4.76537344 4.42254094 9.7364475 8.67366656 14.74180407 12.89050781 6.51382031 5.48532281 12.95907469 11.03921156 19.74716062 16.18170094 9.53074781 7.26805219 19.98714375 13.37047312 31.40347125 17.82729843a141.79558594 141.79558594 0 0 0 65.82387 8.67366563c13.61045625-1.30276406 26.74094719-4.0111425 38.50010719-10.90207781 5.51960531-3.25691063 11.51917687-5.82815531 17.17591594-8.91364969 9.90786375-5.48532281 19.71287719-11.10777844 27.76944468-18.75294563 7.26805219-6.89093625 14.46753844-13.95328875 20.8099425-21.56417437 7.09663594-8.50224937 13.64473969-17.484465 19.54146094-26.74094719 8.09085094-12.61624125 12.82194094-26.56953094 16.93593375-40.62566906 5.89672125-20.15856 11.27919469-40.45425281 16.73023313-60.68138063 1.88557969-7.02806906 0.54853219-14.124705 0.17141625-21.25562437a61.22991187 61.22991187 0 0 1 1.37133093-14.91322031c0.3428325-1.54274719 2.87979469-2.74266094 4.42254094-4.045425l3.94257563 3.97685812c0.20569969 0.20569969 0.20569969 0.58281562 0.3428325 1.06278188 2.84551125-6.71952 9.22219875-8.43368344 15.7703025-10.07928a34.21469906 34.21469906 0 0 1-3.94257563 5.34818906c-4.0111425 4.62824063-8.33083312 9.11934844-10.28497969 14.94750375-1.37133094 4.11399187 0 7.98800062 3.11977688 9.49646437 0.3428325-1.88557969 0.3428325-3.97685906 1.02849844-5.82815531 0.3428325-0.85708125 1.95414656-1.64559656 3.08549343-1.81701281 0.58281562-0.10284937 2.0227125 1.13134781 2.09127938 1.85129625 0.54853219 4.97107313 1.16563125 9.94214719 1.09706437 14.91322031 0 4.45682438-0.89136469 8.91364875-1.3370475 12.82194188h3.90829219c-0.23998312 1.0284975-0.37711594 2.15984531-0.75423187 3.18834375-0.3428325 0.92564812-0.685665 1.98842906-1.37133 2.67409406a5.89672125 5.89672125 0 0 1-3.11977782 1.71416344c-0.685665 0.10284937-1.54274719-1.06278094-1.88557875-1.37133-1.85129625 1.81701281-3.66830906 3.87400875-5.89672218 5.51960531-0.75423187 0.58281562-3.29119312 0.44568281-3.56545969-0.03428344-0.58281562-1.0284975-0.3428325-2.50267875-0.17141625-3.77115937 0.13713281-0.78851531 0.75423187-1.50846375 1.16563125-2.26269563-4.11399187 2.26269563-7.30233562 10.52496281-6.99378656 16.7645175 5.75958844 2.26269563 5.86243875 2.22841219 8.98221562-2.53696219 0.13713281-0.27426656 0.23998312-0.6513825 0.47996625-0.78851437 1.43989688-0.75423187 2.87979469-1.43989688 4.35397406-2.15984625l0.85708219 0.92564812a21.25562438 21.25562438 0 0 1-6.82237031 13.74759c-1.95414656 1.71416344-4.18255875 2.05699594-6.68523656 0.23998219-4.59395719-3.32547656-4.73109094-3.22262719-5.93100469 1.81701375-1.0284975 4.18255875-1.88557969 8.3994-2.87979469 12.75337406zM516.73109094 924.38425854c3.46260937-5.00535656 6.85665281-9.25648125 9.53074781-13.88472281 7.50803531-13.02764063 11.073495-27.32376281 15.22176938-41.41418437 4.045425-13.7818725 8.33083312-27.5294625 18.44439656-38.74009032 7.88515125-8.70794906 16.55881688-16.76451656 24.78680156-25.16391656 6.78808687-6.95950313 13.98757219-13.67902313 20.15856-21.11849156 21.70130719-26.192415 32.70623531-56.63595469 40.59138656-88.21084219 0.23998312-0.994215-0.685665-2.674095-1.6455975-3.39404344-3.22262719-2.46839531-6.75380344-4.62824063-10.07928-6.99378656-10.62781219-7.47375187-19.71287719-16.113135-21.76987312-28.79794219a126.02528438 126.02528438 0 0 1-1.71416344-24.512535c0.41139938-11.34776063 2.05699594-22.62695531 3.08549438-33.97471593 0.71994844-7.98800062 1.30276406-15.97600125 2.0227125-24.58110188-1.81701281 0.61709906-2.94836063 0.89136469-4.0111425 1.3370475-12.27340875 4.90250719-22.1812725 12.99335719-32.56910157 20.39854313-10.66209562 7.54231875-22.11270656 13.26762375-35.34604687 16.113135-16.113135 3.42832687-32.43196875 3.53117625-48.71652094 2.74266093a145.4296125 145.4296125 0 0 1-26.46668062-3.94257562c-15.15320344-3.59974313-27.94086094-11.62202719-40.59138657-19.71287719-10.52496281-6.75380344-21.18705844-13.33619063-33.70044937-17.27876625 0 1.37133094-0.10284937 2.57124469 0 3.77115938 1.43989688 13.54189031 3.0169275 27.08377969 4.25112469 40.6599525 0.95993156 10.49067938 0.92564812 20.98135875-1.78272938 31.26633843-1.78272937 6.71952-4.045425 13.37047312-10.35354656 17.96443125l-18.47868 13.54188938c-4.25112469 3.08549344-8.22798375 6.51382031-8.29655063 11.89629375-0.03428344 5.48532281-0.10284937 11.03921156 0.95993157 16.38740062a167.98800094 167.98800094 0 0 0 21.32419125 54.78465844c6.92521969 11.31347719 14.57038781 22.69552219 27.18662906 29.5864575 8.60509969 4.66252406 18.03299719 8.22798375 27.28947937 11.82772688 11.58774375 4.55967469 22.96978781 9.35933156 31.36918875 18.37583062 20.94707531 22.55838844 36.10027875 47.61945563 40.11142032 77.58302906 1.0284975 7.95371719 3.59974313 15.63316875 9.18791531 23.4840375z m157.94300343-571.91343468l1.37133094-0.54853219c0-6.51382031 0.95993156-13.23334031-0.23998312-19.61002781a244.43968312 244.43968312 0 0 0-8.3994-30.85493906c-4.55967469-13.74758906-10.04499656-27.25519594-9.94214719-41.92843407a3.08549344 3.08549344 0 0 0-0.85708125-1.85129625c-6.99378656-8.22798375-13.95328875-16.52453437-21.08420813-24.68395125-1.98842906-2.22841219-4.52539125-4.11399187-6.78808687-6.17098781l-0.85708125 0.61709906c0.13713281 6.75380344 3.53117625 13.71330656-1.26848063 20.87850844-2.81122781-3.42832687-5.34818906-6.34240406-7.713735-9.393615-2.39982844-3.05121094-4.55967469-6.23955469-6.92521968-9.29076469-2.3312625-3.08549344-4.66252406-6.17098781-7.19948625-9.11934843-2.39982844-2.81122781-5.07392344-5.48532281-7.61088469-8.19370032-0.10284937 4.66252406 2.05699594 8.91364875-1.43989688 13.0962075-22.45553906-15.94171875-44.39682844-32.12341969-69.35504625-44.46539531 0.685665 1.37133094 1.64559656 2.365545 2.70837844 3.32547656 4.31969156 3.94257563 8.84508281 7.713735 12.92479031 11.89629282a32.5691025 32.5691025 0 0 1 5.24533969 7.64516812c0.92564812 1.71416344 0.47996531 3.53117625-2.26269562 3.53117625-4.353975 0.03428344-8.7422325 0.41139938-12.95907375-0.23998219-6.41097094-1.0284975-12.65052469-2.77694437-19.09577907-4.28540812 0.13713281 2.15984531-1.23419719 2.43411187-3.35976 1.74844594-2.50267875-0.82279875-5.14248938-1.37133094-7.54231875-2.33126157-9.94214719-4.0111425-19.74716062-8.22798375-29.65502437-12.23912625-7.13091938-2.91407719-7.16520281-2.84551125-11.99914313 2.63981157l-2.74266093 3.0169275c-10.62781219 11.65631062-20.77565906 23.65545281-33.5976 33.42618375-0.85708125 0.6513825-2.0227125 0.994215-3.0169275 1.47418031-0.54853219-1.06278094-1.30276406-2.05699594-1.61131313-3.22262719-0.44568281-1.57703063-0.54853219-3.25691063-0.89136562-5.58817219l-2.22841219 3.08549438c-3.25691063 4.83394031-6.41097094 9.77073094-9.87358031 14.4675375-4.353975 5.96528813-9.32504813 11.48489437-16.38740063 14.91322125-2.98264406 1.47418031-6.30812062 2.29697906-9.49646437 3.42832594l-0.68566594-0.89136469c1.13134781-2.84551125 2.19412875-5.6910225 3.42832687-8.50225031 2.26269563-5.00535656 2.50267875-6.06813844 1.43989688-8.57081625-10.7306625 15.804585-22.93550438 30.85493906-24.16970156 50.46496687-5.10820688-1.13134781-3.80544281-6.27383719-6.30812157-8.02228406-2.29697906 4.28540813-4.52539125 8.43368344-6.68523656 12.58195875-2.15984531 4.21684125-5.21105625 8.22798375-6.17098781 12.68480812-1.67988 7.405185-2.05699594 15.08463656-2.87979375 22.62695532-0.92564812 7.98800062-1.37133094 16.01028469-2.84551125 23.89543593-0.75423187 4.21684125-3.15406031 8.22798375-4.79965688 12.23912532h9.05078157c1.78272937-3.90829219 2.91407719-7.67945156 5.14249031-10.83351188 5.21105625-7.47375187 13.7818725-10.59352875 22.66123781-12.75337406 19.95286031-4.90250719 40.31712-5.27962313 60.74994656-3.80544281 16.4559675 1.16563125 31.95200344 5.45103937 46.48810782 12.444825 4.49110781 2.15984531 8.22798375 3.49689281 13.71330656 1.91986312 8.77651594-2.50267875 17.99871469-0.61709906 27.04949625 0.13713281 9.94214719 0.82279875 19.74716062 0.78851531 28.55796-4.55967375 13.0962075-7.88515125 28.11227812-9.90786375 43.19691469-11.58774375a206.52239156 206.52239156 0 0 1 38.53439062-0.78851531c13.95328875 1.0284975 27.563745 3.29119312 40.86565219 7.26805219 3.0169275 0.89136469 4.62824063 2.29697906 5.41675594 5.03964 0.37711594 1.37133094 1.57703063 2.57124469 2.39982843 3.83972625z m-355.4146125 24.61538437c-2.87979469-1.71416344-6.17098781-3.77115937-9.53074781-5.65673906-2.60552813-1.47418031-5.21105625-3.08549344-8.0565675-4.11399187-3.66830906-1.37133094-7.61088469-0.54853219-8.77651594 1.37133093a42.51124875 42.51124875 0 0 0-6.17098781 31.06063875c2.05699594 10.49067938 7.47375187 19.64431125 13.30190625 28.66080938 6.71952 10.45639594 13.16477438 21.11849156 19.85001094 31.60917094 1.98842906 3.15406031 4.14827531 6.23955469 6.68523656 9.0507825a17.93014781 17.93014781 0 0 0 11.58774375 6.10242093c-1.61131312-7.95371719-3.08549344-15.70173563-4.76537344-23.41547062-1.0284975-4.79965687-1.19991469-4.86822375-6.20527125-3.08549344-2.43411187 0.85708125-4.62824063 1.13134781-5.75958843-1.57703062-0.89136469-2.09127938 0.95993156-4.38825844 3.97685906-4.97107313 1.81701281-0.3428325 3.7025925-0.51424875 6.0681375-0.82279875-2.91407719-3.42832687 0.58281562-10.01071313-7.7480175-10.97064469 0.58281562 1.37133094 1.0284975 2.05699594 1.16563031 2.81122782 0.23998312 1.37133094 0.27426656 2.81122781 0.37711594 4.25112468-1.57703063-0.37711594-3.18834375-0.71994844-4.73109-1.19991375-0.47996531-0.13713281-0.85708125-0.6513825-1.23419813-1.02849843a28.35226031 28.35226031 0 0 1-8.63938218-22.00985625c0.20569969-4.66252406 2.05699594-8.87936531 8.53653281-11.17634438-0.27426656 2.74266094-0.54853219 4.79965687-0.6513825 6.92521969-0.10284937 2.22841219 0 4.45682438 0 6.89093625l4.90250719-2.39982844-4.18255782-36.30597844z m19.78144407-234.29183625c11.65631062-13.02764063 28.2151275-20.70709219 42.09984937-32.15770312-7.98800062 3.53117625-15.25605281 7.0623525-22.79837156 9.94214719-3.25691063 1.26848063-7.0623525 1.37133094-10.62781219 1.81701281-0.75423187 0.06856687-1.88557969-0.685665-2.29697812-1.37133094-0.23998312-0.37711594 0.51424875-1.47418031 1.09706437-1.98842906 2.09127938-1.71416344 4.31969156-3.35976 6.85665281-5.31390656-3.39404344-0.85708125-5.62245562 0.54853219-7.33661906 2.05699593-7.67945156 6.85665281-15.18748687 13.91900625-22.69552125 20.94707532-0.85708125 0.78851531-1.50846375 1.71416344-2.22841219 2.60552812l0.58281563 0.54853219 16.01028469-10.52496188c4.21684125 6.10242094 4.21684125 6.10242094 1.3370475 13.43904z m134.3561175 751.48917938c0-3.53117625-2.63981156-6.82236938-5.48532282-6.75380344-2.98264406 0.03428344-7.30233562 4.11399187-7.19948625 6.85665281 0.10284937 2.60552813 3.35976 6.58238719 5.38247344 6.58238719 4.66252406 0 7.26805219-2.39982844 7.30233563-6.65095312z m214.338975-472.83479813c4.59395719 1.37133094 4.97107313-1.71416344 5.72530593-3.97685812 1.88557969-5.55388875 1.0284975-7.54231875-3.97685906-9.59931469l-1.74844687 13.57617281z m-360.48853594 2.46839532c-0.10284937-1.0284975 0-2.15984531-0.3428325-3.15406032-0.23998312-0.51424875-1.64559656-1.19991469-1.88557969-1.0284975-1.81701281 1.19991469-3.42832687 2.60552813-5.3824725 4.18255782h7.61088469z m146.14956094 470.36640281c-0.03428344 4.28540813-2.63981156 6.65095313-7.30233563 6.68523656-2.05699594 0-5.27962313-3.97685906-5.38247344-6.61667062-0.10284937-2.70837844 4.21684125-6.78808687 7.19948625-6.85665282 2.84551125 0 5.48532281 3.25691063 5.48532282 6.82237032z m214.338975-472.83479813l1.74844687-13.57617281c5.03964 2.05699594 5.82815531 4.045425 3.97685906 9.59931469-0.75423187 2.22841219-1.13134781 5.34818906-5.72530593 3.97685812z m-360.48853594 2.46839532h-7.61088469c1.95414656-1.57703063 3.56545969-2.98264406 5.3824725-4.18255782 0.23998312-0.17141625 1.64559656 0.51424875 1.85129625 1.0284975 0.37711594 0.994215 0.27426656 2.12556281 0.3428325 3.15406032z m286.12813313-65.65245282l2.60552812 20.91279188c3.87400875 1.50846375 4.18255875 1.47418031 0.47996625 5.48532187a19.1300625 19.1300625 0 0 1-13.40475656 5.51960625 60.26998031 60.26998031 0 0 1-28.62652688-4.31969156c-2.91407719-1.30276406-5.58817219-3.15406031-8.36511656-4.73109094l0.51424875-1.30276406 9.15363188 0.37711594c-1.88557969-5.31390656-4.18255875-10.38782906-2.26269563-15.94171781a523.3340475 523.3340475 0 0 0-0.82279875-0.68566594l-13.67902219 11.89629375 3.18834375 5.41675594-0.994215 1.0284975-12.34197562-2.365545c3.42832687-10.25069625 10.7306625-17.38161562 20.56995937-22.62695532 12.03342656-6.47953687 25.26676688-8.29655063 38.80865625-6.92521968 11.75916 1.16563125 22.35268875 6.033855 31.98628688 12.34197562 4.62824063 3.0169275 9.085065 6.27383719 13.30190719 9.80501344 1.78272937 1.47418031 2.674095 3.83972531 4.35397406 6.3766875-9.94214719 0.89136469-18.89007937 1.71416344-27.83801156 2.43411187a10.11356344 10.11356344 0 0 1-4.11399188-0.61709906c-1.13134781-0.41139938-1.98842906-1.37133094-2.94836062-2.05699594 0.95993156-0.92564812 1.71416344-2.3312625 2.84551125-2.63981062 3.22262719-0.89136469 6.58238719-1.3370475 9.87358031-1.95414656 0.58281562-0.13713281 1.16563125-0.41139938 2.46839531-0.82279875-6.30812062-8.22798375-15.83886844-10.86779531-24.75251812-14.60467032z m-22.48982157 3.15406032c-1.09706437 0-2.29697906-0.23998312-3.32547656 0.03428343-2.91407719 0.78851531-6.51382031 1.50846375-7.09663594 4.55967375-0.3428325 1.71416344 0.92564812 4.49110781 2.50267782 5.6910225 4.93679062 3.77115937 11.17634437 0.685665 12.68480812-3.87400968 1.78272937-5.21105625 0.95993156-6.34240406-4.76537344-6.41097z m-138.60724218 20.22712593c-0.78851531-7.61088469-6.27383719-10.97064469-12.17055938-14.50182093l-0.75423187 8.67366656-0.95993157 8.60509969 7.88515125-0.54853219 0.23998219 1.16563031a30.68352281 30.68352281 0 0 1-12.82194094 6.95950313 58.28155125 58.28155125 0 0 1-21.76987312 2.43411187c-5.82815531-0.41139938-11.51917687-1.57703063-15.83886938-5.65673906-2.39982844-2.26269563-2.05699594-3.42832687 0.82279875-4.93678969 0.78851531-0.37711594 1.54274719-1.88557969 1.37133094-2.674095a28.11227812 28.11227812 0 0 1 0.685665-16.93593281c-2.57124469-2.15984531-5.48532281-0.6513825-8.02228406-0.06856688-7.33661906 1.61131312-13.0962075 5.75958844-19.1300625 11.14206094l6.51382031 1.43989781c3.39404344 0.685665 6.82236938 1.30276406 10.14784688 2.15984532 0.61709906 0.17141625 1.43989688 1.37133094 1.30276406 1.91986312-0.17141625 0.61709906-1.3370475 1.30276406-2.09127938 1.37133094a68.80651406 68.80651406 0 0 1-25.30104937-3.08549438c-0.41139938-0.13713281-0.685665-0.47996531-1.16563125-0.78851531 2.87979469-7.43946844 8.53653281-12.54767531 15.83886844-16.18170094 8.7422325-4.38825844 18.1358475-6.61667062 28.11227812-7.54231875 11.34776063-1.06278094 22.35268875-0.17141625 33.04906781 3.22262719 8.09085094 2.57124469 15.32461969 6.47953687 19.74716063 13.64473969 0.06856687 0.06856687 0.20569969 0.13713281 0.20569969 0.20569969l2.43411187 8.22798375-8.33083312 1.71416343z m-31.09492219-16.25026781c-3.83972531-0.3428325-7.405185-0.75423187-11.00492813-0.78851437-1.37133094 0-3.25691063 0.61709906-3.94257562 1.54274625-1.64559656 2.15984531-1.23419719 4.83394031 0.685665 6.61667062 1.81701281 1.64559656 4.11399187 3.25691063 7.19948625 2.3312625a9.25648125 9.25648125 0 0 0 7.0623525-9.702165z m154.44611062 148.68652313c-16.25026781 3.56545969-32.5691025 7.19948531-48.85365281 10.73066156-8.02228406 1.71416344-16.113135 1.09706437-24.1697025 0.17141625-11.99914313-1.37133094-23.92971938-3.15406031-35.89457906-4.45682438-4.49110781-0.44568281-9.11934844 0.20569969-13.64473969 0.10285032-6.30812062-0.06856687-9.15363188-1.81701281-10.62781219-6.41097094h3.94257563c8.91364875 0 17.82729844-0.44568281 26.63809781 0.06856687 7.91943469 0.44568281 15.90743531 1.50846375 23.65545281 3.08549344 12.4105425 2.53696125 24.34111875 1.06278094 36.34026188-2.12556281 7.81658438-2.05699594 15.83886844-3.73687594 23.89543594-5.00535656a27.59802844 27.59802844 0 0 1 18.71866218 3.83972625z m-106.31240625 23.99828531c27.59802844 12.95907469 54.4075425 7.54231875 81.73130532-1.13134781a26.74094719 26.74094719 0 0 1-10.59352875 9.77073093 58.4529675 58.4529675 0 0 1-24.512535 6.95950313c-12.20484281 1.0284975-24.13541906 0-35.20891407-5.41675594a25.74673219 25.74673219 0 0 1-11.4163275-10.18213031z m237.92586282-126.02528344c1.71416344-3.77115937 3.35976-7.3709025 4.83394031-10.97064562 2.39982844-5.82815531 4.79965687-11.69059312 4.11399187-17.96443032-0.58281562-4.76537344-2.19412875-9.42789844-3.18834375-13.67902312 6.20527125 2.60552813 10.28497969 12.47910844 8.67366657 22.79837156-1.74844687 11.17634437-7.30233562 19.02721219-14.39897157 19.8157275z m-179.64431063 71.99485688c0.44568281-1.37133094 0.51424875-2.19412875 0.99421406-2.81122782a20.60424281 20.60424281 0 0 1 15.94171875-8.67366562c1.64559656-0.10284937 3.77115937 0.3428325 4.90250719 1.30276406 3.77115937 3.22262719 3.59974313 5.03964-0.41139937 6.95950313a40.6599525 40.6599525 0 0 1-21.46132407 3.22262625zM491.43004063 483.50146386c-4.07970844 0-7.88515125 0.27426656-11.58774375-0.10284938-2.57124469-0.27426656-5.00535656-1.50846375-7.54231876-2.19412875-1.71416344-0.47996531-2.365545-1.37133094-2.33126156-3.08549437 0.06856687-4.0111425 0.685665-4.6968075 5.07392344-4.86822375 5.93100469-0.17141625 13.0962075 4.11399187 16.38740063 10.25069625z m49.84786781-69.69787875c6.033855 8.63938313 8.50224937 18.30726375 12.54767531 27.83801156-8.77651594-4.14827531-16.35311719-17.69016469-12.54767531-27.83801156z m114.71180625-9.59931375c1.06278094-1.40561344 1.98842906-2.98264406 3.25691062-4.21684219 2.81122781-2.674095 6.44525438-4.76537344 6.58238719-9.11934844 0-0.27426656 2.05699594-0.95993156 2.87979375-0.685665 0.89136469 0.3428325 2.05699594 1.57703063 1.98843 2.29697907-0.58281562 4.55967469-3.32547656 7.88515125-7.74801844 9.97642968-1.98842906 0.95993156-4.11399187 1.67988-6.17098781 2.50267875a528.47653781 528.47653781 0 0 0-0.78851531-0.75423187z m-305.80672781-4.79965781c4.59395719 1.37133094 5.17677281 4.79965687 6.17098781 8.09085093-4.97107313 0.03428344-7.19948531-2.77694437-6.17098782-8.12513344z m76.79451468 294.15041812c11.48489437 21.94129031 16.86736688 45.90529219 26.29526438 68.56653094-18.85579594-19.61002781-23.48403656-43.77973031-26.32954782-68.56653094z m158.32012031-10.35354563c0.75423187 0.95993156 2.15984531 1.95414656 2.15984532 2.91407719-0.51424875 19.91857687-2.53696125 39.59717156-12.17055938 57.93871875-0.58281562-20.56995937 7.61088469-40.07713781 9.08506594-60.40711406l0.92564813-0.44568187zM361.94214687 317.22762636a21.97557281 21.97557281 0 0 1 10.69637907-9.97642969c8.67366656-4.38825844 18.20441437-5.89672125 27.872295-6.17098781 19.164345-0.51424875 37.71159188 2.3312625 54.57895875 10.97064468 5.89672125 3.08549344 11.24491125 7.19948531 16.28455031 11.45061094 2.3312625 1.98842906 3.46260937 5.27962313 4.79965781 8.09085 0.37711594 0.75423187-0.13713281 2.50267875-0.85708219 2.87979469-0.92564812 0.54853219-2.43411187 0.20569969-3.7025925 0.20569969a0.54853219 0.54853219 0 0 1-0.3428325-0.10285032c-8.09085094-6.41097094-18.54724687-6.10242094-28.14656062-7.81658437a733.62759844 733.62759844 0 0 0-79.88000906-9.25648125c-0.3428325 0-0.6513825-0.13713281-1.30276406-0.27426656z m172.89050813 14.05613906c1.19991469-7.64516812 6.23955469-12.51339187 12.444825-16.59310031 12.30769219-8.0565675 26.36383125-12.34197562 40.89993562-15.49603594 10.55924531-2.26269563 21.18705844-3.59974313 32.05485376-2.0227125 12.54767531 1.85129625 22.55838844 8.02228406 31.98628687 15.59888531a10.28497969 10.28497969 0 0 1-8.81079937 3.56545969c-5.17677281-0.30854906-10.35354656-1.26848063-15.53031938-1.37133094a183.44975344 183.44975344 0 0 0-18.51296344 0.78851531 240.32569125 240.32569125 0 0 0-17.93014781 2.29697907c-16.35311719 2.674095-33.08335125 4.07970844-47.92800562 11.99914312-2.53696125 1.3370475-5.31390656 2.46839531-8.67366563 1.26848063zM305.95757469 417.81472761c-1.71416344-2.09127938-3.94257563-4.0111425-5.07392344-6.3766875a29.62074094 29.62074094 0 0 1-0.85708219-24.61538438c2.98264406-7.405185 9.35933156-9.0507825 16.31883469-4.38825844 2.15984531 1.43989688 2.05699594 3.35976-0.44568188 3.90829219a17.69016469 17.69016469 0 0 1-7.09663593 0c-1.95414656-0.41139938-2.63981156 0.23998312-3.42832688 1.47418031-2.3312625 3.87400875-2.05699594 7.98800062-1.16563125 12.10199344 0.685665 3.39404344 1.81701281 6.68523656 2.46839531 10.07928 0.47996531 2.365545 0.47996531 4.79965687 0.685665 7.19948531l-1.37132999 0.61709907z" fill="#e6e6e6" /></svg>